<?xml version="1.0" standalone="no"?>
<!DOCTYPE svg PUBLIC "-//W3C//DTD SVG 20010904//EN"
 "http://www.w3.org/TR/2001/REC-SVG-20010904/DTD/svg10.dtd">
<svg version="1.0" xmlns="http://www.w3.org/2000/svg"
 width="894.000000pt" height="894.000000pt" viewBox="0 0 894.000000 894.000000"
 preserveAspectRatio="xMidYMid meet">
<metadata>
Created by potrace 1.15, written by Peter Selinger 2001-2017
</metadata>
<g transform="translate(0.000000,894.000000) scale(0.100000,-0.100000)"
fill="#000000" stroke="none">
<path d="M4120 7894 c-634 -68 -1221 -299 -1725 -678 -274 -205 -549 -492
-748 -778 -253 -364 -442 -794 -537 -1223 -56 -254 -80 -474 -80 -748 0 -446
82 -867 249 -1288 l43 -106 941 337 c518 185 995 355 1059 378 l118 41 41 -60
c131 -193 367 -369 604 -448 172 -58 376 -76 561 -50 257 36 530 179 709 371
218 235 328 525 324 850 0 71 3 133 7 138 8 7 481 178 1630 588 l471 168 -23
81 c-110 381 -318 780 -590 1133 -108 140 -402 438 -541 548 -643 508 -1377
765 -2178 761 -115 -1 -266 -7 -335 -15z m559 -2555 c262 -61 484 -242 601
-492 184 -392 53 -873 -303 -1116 -300 -204 -714 -204 -1014 0 -356 243 -487
724 -303 1116 133 285 395 474 710 513 87 11 206 3 309 -21z"/>
</g>
</svg>
